# xmcd
#
# Track frame offsets: 
#        150
#        12298
#        30222
#        50339
#        63745
#        81914
#        106608
#        121076
#        135548
#        154926
#        179185
#        188160
#        206519
#        230976
#        248851
#        263493
#
# Disc length: 3740 seconds
#
# Revision: 1
# Processed by: cddbd v1.5.2PL0 Copyright (c) Steve Scherf et al.
# Submitted via: ExactAudioCopyFreeDBPlugin 1.0
#
DISCID=d60e9a10
DTITLE=Various Artist - Take Me To Town - An Australian Alternative Country C
DTITLE=ompilation [CD3)
DYEAR=2018
DGENRE=Country
TTITLE0=Amber Rae Slade and The Mighty Big Noise - Yippie Ki Yo Ki Yay
TTITLE1=Bill Jackson - Rollin' Into Rosine
TTITLE2=Cruisin' Deuces - Put The Flame Out
TTITLE3=Helen Townsend - Promised Land
TTITLE4=A Man Called Stu - This Fire
TTITLE5=Jo Meares f.Madeline Lucas - The Sun Is In My Eyes
TTITLE6=Roland Kay-Smith - New Girlfriend
TTITLE7=Mark Lucas - Silver Sun
TTITLE8=Sam Newton - Gategal Falls
TTITLE9=The Buck Loner Revue - Never The One
TTITLE10=Katie Brianna - Sticks and Stones
TTITLE11=Chris Pickering - Andalusia
TTITLE12=Ben Leece - Twenty One
TTITLE13=Peasant Moon - Leaving Tonight
TTITLE14=Mitch Power - Nowhere Else
TTITLE15=M. E. Baird - Full Of The Devil
EXTD=
EXTT0=
EXTT1=
EXTT2=
EXTT3=
EXTT4=
EXTT5=
EXTT6=
EXTT7=
EXTT8=
EXTT9=
EXTT10=
EXTT11=
EXTT12=
EXTT13=
EXTT14=
EXTT15=
PLAYORDER=
